HIERARCHY
ROOT hip
{
  OFFSET 0.0 0.0 0.0
  CHANNELS 6 Xposition Yposition Zposition Zrotation Yrotation Xrotation
  JOINT abdomen
  {
    OFFSET 0.0 20.6881 -0.73152
    CHANNELS 3 Zrotation Xrotation Yrotation
    JOINT chest
    {
      OFFSET 0.0 11.7043 -0.48768
      CHANNELS 3 Zrotation Xrotation Yrotation
      JOINT neck
      {
        OFFSET 0.0 22.1894 -2.19456
        CHANNELS 3 Zrotation Xrotation Yrotation
        JOINT head
        {
          OFFSET -0.24384 7.07133 1.2192
          CHANNELS 3 Zrotation Xrotation Yrotation
          JOINT leftEye
          {
            OFFSET 4.14528 8.04674 8.04672
            CHANNELS 3 Zrotation Xrotation Yrotation
            End Site
            {
              OFFSET 1.0 0.0 0.0
            }
          }
          JOINT rightEye
          {
            OFFSET -3.6576 8.04674 8.04672
            CHANNELS 3 Zrotation Xrotation Yrotation
            End Site
            {
              OFFSET 1.0 0.0 0.0
            }
          }
        }
      }
      JOINT rCollar
      {
        OFFSET -2.68224 19.2634 -4.8768
        CHANNELS 3 Zrotation Xrotation Yrotation
        JOINT rShldr
        {
          OFFSET -8.77824 -1.95073 1.46304
          CHANNELS 3 Zrotation Xrotation Yrotation
          JOINT rForeArm
          {
            OFFSET -28.1742 -1.7115 0.48768
            CHANNELS 3 Zrotation Xrotation Yrotation
            JOINT rHand
            {
              OFFSET -22.5879 0.773209 7.07136
              CHANNELS 3 Zrotation Xrotation Yrotation
              JOINT rThumb1
              {
                OFFSET -1.2192 -0.487915 3.41376
                CHANNELS 3 Zrotation Xrotation Yrotation
                JOINT rThumb2
                {
                  OFFSET -3.37035 -0.52449 3.41376
                  CHANNELS 3 Zrotation Xrotation Yrotation
                  End Site
                  {
                    OFFSET -1.78271 -1.18214 1.43049
                  }
                }
              }
              JOINT rIndex1
              {
                OFFSET -7.75947 0.938293 5.60832
                CHANNELS 3 Zrotation Xrotation Yrotation
                JOINT rIndex2
                {
                  OFFSET -2.54057 -0.884171 1.56538
                  CHANNELS 3 Zrotation Xrotation Yrotation
                  End Site
                  {
                    OFFSET -1.62519 -0.234802 1.16502
                  }
                }
              }
              JOINT rMid1
              {
                OFFSET -8.24714 1.18213 3.41376
                CHANNELS 3 Zrotation Xrotation Yrotation
                JOINT rMid2
                {
                  OFFSET -3.10165 -0.590103 1.0647
                  CHANNELS 3 Zrotation Xrotation Yrotation
                  End Site
                  {
                    OFFSET -2.48547 -0.328903 0.83742
                  }
                }
              }
              JOINT rRing1
              {
                OFFSET -8.82822 0.546677 1.51678
                CHANNELS 3 Zrotation Xrotation Yrotation
                JOINT rRing2
                {
                  OFFSET -2.60934 -0.819778 -0.0198488
                  CHANNELS 3 Zrotation Xrotation Yrotation
                  End Site
                  {
                    OFFSET -2.33842 -0.294052 0.168128
                  }
                }
              }
              JOINT rPinky1
              {
                OFFSET -8.27202 -0.0477905 -0.4584
                CHANNELS 3 Zrotation Xrotation Yrotation
                JOINT rPinky2
                {
                  OFFSET -1.82734 -0.647385 -0.700984
                  CHANNELS 3 Zrotation Xrotation Yrotation
                  End Site
                  {
                    OFFSET -1.69225 -0.51767 -0.607171
                  }
                }
              }
            }
          }
        }
      }
      JOINT lCollar
      {
        OFFSET 2.68224 19.2634 -4.8768
        CHANNELS 3 Zrotation Xrotation Yrotation
        JOINT lShldr
        {
          OFFSET 8.77824 -1.95073 1.46304
          CHANNELS 3 Zrotation Xrotation Yrotation
          JOINT lForeArm
          {
            OFFSET 28.1742 -1.7115 0.48768
            CHANNELS 3 Zrotation Xrotation Yrotation
            JOINT lHand
            {
              OFFSET 22.5879 0.773209 7.07136
              CHANNELS 3 Zrotation Xrotation Yrotation
              JOINT lThumb1
              {
                OFFSET 1.2192 -0.487915 3.41376
                CHANNELS 3 Zrotation Xrotation Yrotation
                JOINT lThumb2
                {
                  OFFSET 3.37035 -0.52449 3.41376
                  CHANNELS 3 Zrotation Xrotation Yrotation
                  End Site
                  {
                    OFFSET 1.78271 -1.18214 1.43049
                  }
                }
              }
              JOINT lIndex1
              {
                OFFSET 7.75947 0.938293 5.60832
                CHANNELS 3 Zrotation Xrotation Yrotation
                JOINT lIndex2
                {
                  OFFSET 2.54057 -0.884171 1.56538
                  CHANNELS 3 Zrotation Xrotation Yrotation
                  End Site
                  {
                    OFFSET 1.62519 -0.234802 1.16502
                  }
                }
              }
              JOINT lMid1
              {
                OFFSET 8.24714 1.18213 3.41376
                CHANNELS 3 Zrotation Xrotation Yrotation
                JOINT lMid2
                {
                  OFFSET 3.10165 -0.590103 1.0647
                  CHANNELS 3 Zrotation Xrotation Yrotation
                  End Site
                  {
                    OFFSET 2.48547 -0.328903 0.83742
                  }
                }
              }
              JOINT lRing1
              {
                OFFSET 8.82822 0.546677 1.51678
                CHANNELS 3 Zrotation Xrotation Yrotation
                JOINT lRing2
                {
                  OFFSET 2.60934 -0.819778 -0.0198488
                  CHANNELS 3 Zrotation Xrotation Yrotation
                  End Site
                  {
                    OFFSET 2.33842 -0.294052 0.168128
                  }
                }
              }
              JOINT lPinky1
              {
                OFFSET 8.27202 -0.0477905 -0.4584
                CHANNELS 3 Zrotation Xrotation Yrotation
                JOINT lPinky2
                {
                  OFFSET 1.82734 -0.647385 -0.700984
                  CHANNELS 3 Zrotation Xrotation Yrotation
                  End Site
                  {
                    OFFSET 1.69225 -0.51767 -0.607171
                  }
                }
              }
            }
          }
        }
      }
    }
  }
  JOINT rButtock
  {
    OFFSET -8.77824 4.35084 1.2192
    CHANNELS 3 Zrotation Xrotation Yrotation
    JOINT rThigh
    {
      OFFSET 0.0 -1.70687 -2.19456
      CHANNELS 3 Zrotation Xrotation Yrotation
      JOINT rShin
      {
        OFFSET 0.0 -36.8199 0.73152
        CHANNELS 3 Zrotation Xrotation Yrotation
        JOINT rFoot
        {
          OFFSET 0.73152 -45.1104 -5.12064
          CHANNELS 3 Zrotation Xrotation Yrotation
          End Site
          {
            OFFSET -1.1221 -3.69964 12.103
          }
        }
      }
    }
  }
  JOINT lButtock
  {
    OFFSET 8.77824 4.35084 1.2192
    CHANNELS 3 Zrotation Xrotation Yrotation
    JOINT lThigh
    {
      OFFSET 0.0 -1.70687 -2.19456
      CHANNELS 3 Zrotation Xrotation Yrotation
      JOINT lShin
      {
        OFFSET 0.0 -36.8199 0.73152
        CHANNELS 3 Zrotation Xrotation Yrotation
        JOINT lFoot
        {
          OFFSET -0.73152 -45.1104 -5.12064
          CHANNELS 3 Zrotation Xrotation Yrotation
          End Site
          {
            OFFSET 1.1221 -3.69964 12.103
          }
        }
      }
    }
  }
}
MOTION
Frames: 5
Frame Time: 0.00833333
0.0 74.3335 0.0 -8.3143 6.2819 -7.0028 7.78833 19.1305 12.0931 -1.25707 -2.28976 3.69198 -0.632665 -1.82206 -4.65906 -2.7089 -8.44539 -9.25068 -0.0 0.0 0.0 -0.0 0.0 0.0 0.0 0.0 0.0 0.0 0.0 0.0 0.0 0.0 0.0 -0.124527 -10.0114 -1.42165 -4.05438e-09 8.40302e-09 6.18961e-10 -7.01055e-09 1.45698e-08 1.04577e-09 -4.05438e-09 8.40303e-09 6.18958e-10 7.73091 5.47488 0.417314 -4.05438e-09 8.40302e-09 6.18955e-10 2.90554 0.965183 0.102902 -4.05437e-09 8.40302e-09 6.18962e-10 10.2786 0.731801 0.0259123 -4.05438e-09 8.40302e-09 6.18971e-10 2.22167 -0.733487 -0.20892 0.0 0.0 0.0 0.0 0.0 0.0 0.0 0.0 0.0 0.0321685 -5.11282 0.720492 -4.3922e-09 -2.74676e-09 1.40736e-09 -7.60551e-09 -4.76122e-09 2.42904e-09 -4.39221e-09 -2.74676e-09 1.40738e-09 -7.73091 5.47488 -0.417314 -4.3922e-09 -2.74676e-09 1.40735e-09 -2.90554 0.965183 -0.102902 -4.3922e-09 -2.74676e-09 1.40736e-09 -10.2786 0.731801 -0.0259123 -4.39219e-09 -2.74676e-09 1.40735e-09 -2.22167 -0.733487 0.20892 -2.03217e-16 0.0 -3.88251e-19 7.86085 -13.2412 -8.13297 -0.736157 56.045 1.73656 -14.2418 -24.1328 -25.7961 2.03217e-16 0.0 3.88251e-19 20.238 -51.7151 10.5271 1.01355 57.5857 -0.989964 0.315586 -4.65225 -0.218751
0.0708 74.2527 0.5223000000000013 -8.3828 6.0407 -6.921 7.85823 19.1574 12.2732 -1.34322 -2.21358 3.74264 -0.677594 -1.84236 -4.6735 -2.69616 -8.63447 -9.27102 -0.0 0.0 0.0 -0.0 0.0 0.0 0.0 0.0 0.0 0.0 0.0 0.0 0.0 0.0 0.0 -0.124772 -10.021 -1.42305 -3.09374e-09 6.45766e-09 3.55198e-10 -5.34839e-09 1.11944e-08 5.94846e-10 -3.09374e-09 6.45767e-09 3.55193e-10 7.73091 5.47488 0.417314 -3.09374e-09 6.45766e-09 3.55191e-10 2.90554 0.965183 0.102902 -3.09374e-09 6.45766e-09 3.55196e-10 10.2786 0.731801 0.0259123 -3.09375e-09 6.45766e-09 3.55203e-10 2.22167 -0.733487 -0.20892 0.0 0.0 0.0 0.0 0.0 0.0 0.0 0.0 0.0 0.030349 -4.96179 0.699103 -3.26596e-09 -2.08571e-09 1.03484e-09 -5.6549e-09 -3.61502e-09 1.78576e-09 -3.26597e-09 -2.0857e-09 1.03486e-09 -7.73091 5.47488 -0.417314 -3.26596e-09 -2.08571e-09 1.03484e-09 -2.90554 0.965183 -0.102902 -3.26596e-09 -2.08571e-09 1.03484e-09 -10.2786 0.731801 -0.0259123 -3.26596e-09 -2.08571e-09 1.03483e-09 -2.22167 -0.733487 0.20892 -2.03217e-16 0.0 -3.88251e-19 7.93712 -12.865 -8.01237 -0.733919 55.9851 1.73246 -14.3037 -24.3237 -25.7784 2.03217e-16 0.0 3.88251e-19 20.2223 -51.632 10.4295 0.966152 56.6539 -0.920159 0.342386 -4.51561 -0.0615326
0.13904699999999998 74.1645 1.0559000000000083 -8.482 5.7877 -6.8494 7.94809 19.1769 12.4438 -1.42542 -2.13059 3.79181 -0.702347 -1.85033 -4.67709 -2.70341 -8.83811 -9.27765 -0.0 0.0 0.0 -0.0 0.0 0.0 0.0 0.0 0.0 0.0 0.0 0.0 0.0 0.0 0.0 -0.124685 -10.0176 -1.42255 -1.22772e-09 2.57709e-09 3.93785e-11 -2.1215e-09 4.46529e-09 5.95705e-11 -1.22772e-09 2.57709e-09 3.93717e-11 7.73091 5.47488 0.417314 -1.22772e-09 2.57708e-09 3.93729e-11 2.90554 0.965183 0.102902 -1.22771e-09 2.57708e-09 3.93736e-11 10.2786 0.731801 0.0259123 -1.22772e-09 2.57709e-09 3.93784e-11 2.22167 -0.733487 -0.20892 0.0 0.0 0.0 0.0 0.0 0.0 0.0 0.0 0.0 0.0285585 -4.80164 0.676439 -1.10164e-09 -1.00273e-09 4.21342e-10 -1.90751e-09 -1.73704e-09 7.27103e-10 -1.10165e-09 -1.00273e-09 4.21356e-10 -7.73091 5.47488 -0.417314 -1.10164e-09 -1.00273e-09 4.21338e-10 -2.90554 0.965183 -0.102902 -1.10164e-09 -1.00273e-09 4.2134e-10 -10.2786 0.731801 -0.0259123 -1.10163e-09 -1.00273e-09 4.21333e-10 -2.22167 -0.733487 0.20892 -2.03217e-16 0.0 -3.88251e-19 8.03184 -12.4847 -7.88167 -0.732014 55.9344 1.72909 -14.3716 -24.516 -25.7689 2.03217e-16 0.0 3.88251e-19 20.2683 -51.5318 10.3823 0.926848 55.8467 -0.86013 0.376657 -4.37384 0.136012
0.203305 74.0635 1.6008000000000067 -8.6203 5.5259 -6.7837 8.04284 19.1824 12.6022 -1.49822 -2.04614 3.83788 -0.718097 -1.85918 -4.67441 -2.72041 -9.02854 -9.27491 -0.0 0.0 0.0 -0.0 0.0 0.0 0.0 0.0 0.0 0.0 0.0 0.0 0.0 0.0 0.0 -0.124487 -10.0098 -1.42142 7.69246e-10 -1.67411e-09 -2.15432e-10 1.33107e-09 -2.90446e-09 -3.69133e-10 7.69254e-10 -1.67412e-09 -2.15441e-10 7.73091 5.47488 0.417314 7.69254e-10 -1.67413e-09 -2.15437e-10 2.90554 0.965183 0.102902 7.69257e-10 -1.67412e-09 -2.15439e-10 10.2786 0.731801 0.0259123 7.69243e-10 -1.67412e-09 -2.15437e-10 2.22167 -0.733487 -0.20892 0.0 0.0 0.0 0.0 0.0 0.0 0.0 0.0 0.0 0.0262716 -4.60245 0.648256 1.21718e-09 -5.8357e-11 -2.10954e-10 2.10656e-09 -9.85658e-11 -3.6375e-10 1.21718e-09 -5.83546e-11 -2.10947e-10 -7.73091 5.47488 -0.417314 1.21718e-09 -5.83558e-11 -2.10957e-10 -2.90554 0.965183 -0.102902 1.21718e-09 -5.83563e-11 -2.10957e-10 -10.2786 0.731801 -0.0259123 1.21719e-09 -5.83556e-11 -2.10963e-10 -2.22167 -0.733487 0.20892 -2.03217e-16 0.0 -3.88251e-19 8.123 -12.1001 -7.74909 -0.730272 55.891 1.7267 -14.4417 -24.7056 -25.7644 2.03217e-16 0.0 3.88251e-19 20.3458 -51.4177 10.374 0.89567 55.1733 -0.81037 0.407985 -4.21704 0.321685
0.273401 73.9557 2.1574000000000098 -8.7621 5.2587 -6.7247 8.12749 19.1677 12.7456 -1.55611 -1.96561 3.87921 -0.73602 -1.88213 -4.67003 -2.73701 -9.17796 -9.2671 -0.0 0.0 0.0 -0.0 0.0 0.0 0.0 0.0 0.0 0.0 0.0 0.0 0.0 0.0 0.0 -0.1244 -10.0063 -1.42092 2.12271e-09 -4.73137e-09 -2.9617e-10 3.67026e-09 -8.20191e-09 -5.00343e-10 2.12272e-09 -4.73138e-09 -2.9618e-10 7.73091 5.47488 0.417314 2.12272e-09 -4.73139e-09 -2.96173e-10 2.90554 0.965183 0.102902 2.12272e-09 -4.73138e-09 -2.96178e-10 10.2786 0.731801 0.0259123 2.12271e-09 -4.73138e-09 -2.96176e-10 2.22167 -0.733487 -0.20892 0.0 0.0 0.0 0.0 0.0 0.0 0.0 0.0 0.0 0.0230963 -4.33432 0.610325 2.80691e-09 1.86912e-10 -6.39861e-10 4.85723e-09 3.29159e-10 -1.10363e-09 2.80691e-09 1.86913e-10 -6.39858e-10 -7.73091 5.47488 -0.417314 2.80691e-09 1.86912e-10 -6.39864e-10 -2.90554 0.965183 -0.102902 2.80691e-09 1.86912e-10 -6.39864e-10 -10.2786 0.731801 -0.0259123 2.80692e-09 1.86913e-10 -6.3987e-10 -2.22167 -0.733487 0.20892 -2.03217e-16 0.0 -3.88251e-19 8.18878 -11.7111 -7.62281 -0.728525 55.8532 1.72553 -14.5101 -24.8886 -25.7616 2.03217e-16 0.0 3.88251e-19 20.4244 -51.2929 10.3931 0.87279 54.6434 -0.771522 0.426401 -4.03536 0.443325
